# xmcd
#
# Track frame offsets:
#	150
#	15215
#	33440
#	54515
#	77070
#	95577
#	115607
#	133467
#	149682
#	166002
#	182165
#	203130
#
# Disc length: 3040 seconds
#
# Revision: 11
# Processed by: cddbd v1.5.2PL0 Copyright (c) Steve Scherf et al.
# Submitted via: EasyCDDAExtractor 15.3.0.1
#
DISCID=9e0bde0c
DTITLE=Anastacia - Not That Kind (UK Edition)
DYEAR=2000
DGENRE=Pop
TTITLE0=Not That Kind
TTITLE1=I'm Outta Love
TTITLE2=Cowboys and Kisses
TTITLE3=Who's Gonna Stop The Rain
TTITLE4=Love Is Alive
TTITLE5=I Ask Of You
TTITLE6=Wishing Well
TTITLE7=Made For Lovin' You
TTITLE8=Black Roses
TTITLE9=Yo Trippin'
TTITLE10=One More Chance
TTITLE11=Same Old Story
EXTD=YEAR: 2000
EXTT0=
EXTT1=
EXTT2=
EXTT3=
EXTT4=
EXTT5=
EXTT6=
EXTT7=
EXTT8=
EXTT9=
EXTT10=
EXTT11=
PLAYORDER=
